<svg width="114" height="83" viewBox="0 0 114 83" fill="none" xmlns="http://www.w3.org/2000/svg">
<g clip-path="url(#clip0_1420_8204)">
<path d="M111.647 31.3933C109.08 29.6121 103.197 28.9441 98.5976 29.8347C98.0628 25.3818 95.6027 21.4855 91.3242 18.0344L88.8641 16.2533L87.1528 18.8137C85.0135 22.1534 83.9439 26.829 84.2648 31.2819C84.3718 32.8405 84.9066 35.6236 86.511 38.0727C85.0135 38.9633 81.9117 40.0765 77.8471 40.0765H0.514234L0.300311 40.9671C-0.448417 45.42 -0.448417 59.3355 8.3224 70.0226C14.954 78.1492 24.7944 82.2682 37.7367 82.2682C65.7605 82.2682 86.511 68.798 96.2444 44.4181C100.095 44.5295 108.331 44.4181 112.503 36.0689C112.61 35.8462 112.823 35.4009 113.572 33.7311L114 32.8405L111.647 31.3933ZM62.3378 0H50.572V11.1324H62.3378V0ZM62.3378 13.3588H50.572V24.4912H62.3378V13.3588ZM48.4328 13.3588H36.6671V24.4912H48.4328V13.3588ZM34.5279 13.3588H22.7622V24.4912H34.5279V13.3588ZM20.6229 26.7177H8.8572V37.85H20.6229V26.7177ZM34.5279 26.7177H22.7622V37.85H34.5279V26.7177ZM48.4328 26.7177H36.6671V37.85H48.4328V26.7177ZM62.3378 26.7177H50.572V37.85H62.3378V26.7177ZM76.2427 26.7177H64.477V37.85H76.2427V26.7177Z" fill="#2396ED"/>
</g>
<defs>
<clipPath id="clip0_1420_8204">
<rect width="114" height="82.3828" fill="white"/>
</clipPath>
</defs>
</svg>
