<svg width="114" height="114" viewBox="0 0 114 114" fill="none" xmlns="http://www.w3.org/2000/svg">
<path d="M114 88.3321C109.853 89.3866 107.288 88.3784 104.987 84.9228L88.6208 62.2796L86.2552 59.1446L67.1424 84.9976C64.9586 88.1077 62.6679 89.4614 58.5924 88.3606L83.0668 55.5073L60.2811 25.8316C64.1998 25.0693 66.9073 25.4576 69.312 28.9666L86.2873 51.8913L103.387 29.0913C105.578 25.9813 107.933 24.7985 111.866 25.9456L103.031 37.6591L91.0611 53.2451C89.6361 55.0263 89.832 56.2447 91.143 57.9654L114 88.3321ZM0.0285 54.9586L2.03062 45.1119C7.48125 25.625 29.8181 17.5274 45.2224 29.5687C54.2248 36.6509 56.4621 46.6687 56.0168 57.8906H5.2725C4.51013 78.09 19.0487 90.2808 37.5844 84.0607C44.0859 81.8769 47.9156 76.7861 49.8322 70.4163C50.8048 67.2243 52.4151 66.7256 55.4147 67.6376C53.8828 75.6033 50.4272 82.2581 43.1241 86.4226C32.2121 92.657 16.6369 90.6406 8.44312 81.9766C3.5625 76.9499 1.54613 70.5802 0.64125 63.7687C0.49875 62.6429 0.21375 61.5706 0 60.4912C0.019 58.6482 0.0285 56.8052 0.0285 54.9622V54.9586ZM5.36513 53.6049H51.2216C50.9224 38.9986 41.8273 28.6246 29.3977 28.5356C15.7534 28.4287 5.9565 38.5569 5.36513 53.6049Z" fill="black"/>
</svg>
