<svg width="114" height="107" viewBox="0 0 114 107" fill="none" xmlns="http://www.w3.org/2000/svg">
<g clip-path="url(#clip0_1407_8085)">
<path d="M80.1839 0.204956H33.7554C15.1134 0.204956 0.000976562 14.2387 0.000976562 31.5503V74.665C0.000976562 91.9765 15.1134 106.01 33.7554 106.01H80.1839C98.826 106.01 113.938 91.9765 113.938 74.665V31.5503C113.938 14.2387 98.826 0.204956 80.1839 0.204956Z" fill="#2671E5"/>
<path d="M87.8567 49.135C87.0635 48.0457 86.0094 47.1418 84.7771 46.4939C83.5449 45.8461 82.1678 45.4719 80.7538 45.4007C79.3399 45.3296 77.9273 45.5633 76.6269 46.0837C75.3264 46.6041 74.1734 47.397 73.258 48.4003C72.636 49.0221 72.1127 49.723 71.7037 50.482C71.2988 51.213 70.9847 51.9843 70.7672 52.7811H65.1249C65.0003 52.5878 64.9097 52.3771 64.8567 52.1571C64.089 49.3577 62.2077 47.3563 59.3547 46.253C53.8617 44.1289 47.8996 46.9466 46.3635 52.3186C46.2626 52.6715 46.3376 53.071 45.6948 53.153C43.0318 53.493 40.0262 52.078 38.7641 49.8207C37.9133 48.2989 37.9582 48.1665 39.7874 47.9532C47.3795 47.0676 53.58 39.9086 50.9554 31.6065C49.0539 25.5915 41.9551 21.6877 35.306 22.9667C29.0378 24.1725 24.6124 29.0257 24.2845 35.0535C23.983 40.5985 28.113 45.8984 34.1099 47.5458C35.0136 47.7941 35.2177 48.1653 35.2133 48.9708C35.1823 54.5928 35.1547 60.2155 35.221 65.837C35.2823 71.0363 39.3893 75.2691 44.8923 75.8172C45.9294 75.9205 46.2803 76.2606 46.5402 77.1544C47.5653 80.6792 50.9741 83.1864 54.9437 83.4658C56.8477 83.6077 58.7533 83.2102 60.409 82.3258C62.0647 81.4413 63.3927 80.1115 64.2178 78.5117C66.644 73.682 64.2409 68.1667 58.9139 66.3391C53.6377 64.529 47.8959 67.3351 46.4394 72.5066C46.1902 73.3914 45.7718 73.4457 44.9751 73.3232C40.8864 72.6948 38.0474 69.6696 37.9331 65.7229C37.8871 64.1383 37.9222 62.5516 37.9217 60.9659C37.921 58.4536 37.9215 55.9414 37.9215 53.1397C39.2384 54.0771 40.3472 54.7824 41.6509 55.1928C42.9475 55.5772 44.309 55.7377 45.6679 55.6662C46.3225 55.6451 46.2678 56.1024 46.3706 56.4608C47.0732 58.9102 48.5539 60.8209 50.9403 62.0799C52.2058 62.7568 53.6226 63.153 55.0802 63.2375C56.5378 63.3219 57.9966 63.0924 59.3429 62.5667C60.6892 62.0411 61.8863 61.2336 62.841 60.2073C63.7957 59.181 64.4819 57.9636 64.8463 56.6503C64.8995 56.4341 64.9913 56.2277 65.118 56.0397H70.8546C70.8911 56.3278 70.9563 56.6121 71.0492 56.889C72.2341 60.8506 76.1462 63.3761 80.6196 63.2351C84.2086 63.122 88.2526 61.0237 89.4893 56.3343C89.808 55.0969 89.8268 53.8092 89.5445 52.5642C89.2622 51.3192 88.6857 50.148 87.8567 49.135ZM55.6653 68.3598C56.5597 68.3518 57.4468 68.5094 58.275 68.8232C59.1031 69.1371 59.8556 69.601 60.4886 70.1878C61.1216 70.7747 61.6224 71.4727 61.9617 72.2412C62.301 73.0098 62.4722 73.8333 62.465 74.6639C62.4692 75.9158 62.0731 77.1407 61.3269 78.1833C60.5808 79.226 59.5181 80.0395 58.2736 80.5209C57.0291 81.0022 55.6588 81.1297 54.3362 80.8871C53.0136 80.6446 51.7983 80.043 50.8443 79.1585C49.8903 78.274 49.2404 77.1464 48.9771 75.9186C48.7137 74.6908 48.8487 73.4181 49.365 72.2616C49.8813 71.1052 50.7557 70.117 51.8772 69.4224C52.9988 68.7278 54.3172 68.358 55.6653 68.3598ZM27.0889 35.351C27.1145 32.6871 28.2733 30.1406 30.3126 28.267C32.3519 26.3933 35.1063 25.3444 37.975 25.349C40.8438 25.3537 43.5942 26.4115 45.6264 28.2918C47.6587 30.1721 48.8079 32.7223 48.8234 35.3863C48.8322 36.7182 48.5569 38.0385 48.0135 39.2712C47.47 40.5038 46.6692 41.6244 45.6572 42.5682C44.6452 43.5121 43.442 44.2606 42.117 44.7705C40.792 45.2805 39.3714 45.5419 37.9371 45.5395C36.5028 45.5372 35.0831 45.2713 33.76 44.757C32.437 44.2427 31.2366 43.4903 30.2281 42.5432C29.2197 41.5961 28.4231 40.4729 27.8843 39.2385C27.3455 38.0041 27.0752 36.6829 27.0889 35.351ZM55.6186 60.7069C54.2783 60.6955 52.9717 60.3156 51.8637 59.6152C50.7557 58.9148 49.896 57.9252 49.3931 56.7714C48.8902 55.6176 48.7667 54.3514 49.0382 53.1324C49.3097 51.9135 49.964 50.7966 50.9185 49.9228C51.8729 49.0489 53.0849 48.4572 54.4012 48.2224C55.7175 47.9876 57.0792 48.1203 58.3144 48.6035C59.5496 49.0868 60.6029 49.8992 61.3414 50.9379C62.0798 51.9767 62.4704 53.1953 62.4636 54.44C62.4601 55.2696 62.2799 56.0904 61.9335 56.8551C61.5871 57.6198 61.0812 58.3133 60.4451 58.8958C59.8089 59.4782 59.0549 59.9381 58.2266 60.2489C57.3983 60.5598 56.512 60.7154 55.6186 60.7069ZM77.1963 60.0832C75.6832 59.4097 74.4898 58.2428 73.8435 56.8048C73.1973 55.3668 73.1433 53.7583 73.692 52.2857C74.2407 50.8132 75.3536 49.5795 76.8186 48.8199C78.2837 48.0603 79.9985 47.8278 81.6363 48.1667C83.2741 48.5056 84.7204 49.3922 85.6996 50.6576C86.6787 51.923 87.1223 53.4787 86.9459 55.0282C86.7694 56.5778 85.9851 58.0129 84.7425 59.06C83.5 60.1072 81.886 60.6932 80.2081 60.7065C80.1446 60.7066 80.082 60.7041 80.0189 60.7027C79.0427 60.6746 78.0827 60.4639 77.1963 60.0832Z" fill="white"/>
<path d="M43.5452 33.2806C41.3138 31.9133 39.0515 30.5897 36.7582 29.3099C34.7356 28.1755 32.5578 29.3205 32.5006 31.5181C32.4668 32.8134 32.4944 34.1101 32.4961 35.4062C32.4977 36.7382 32.4706 38.0709 32.504 39.4022C32.5558 41.4678 34.6905 42.6537 36.5976 41.6226C38.9408 40.3556 41.2482 39.0318 43.5197 37.6514C45.41 36.5035 45.4144 34.4261 43.5452 33.2806ZM41.6872 35.7494C39.7399 36.8669 37.7934 37.9856 35.8478 39.1057C35.5101 39.3 35.2493 39.3188 35.2484 38.8532C35.2441 36.4506 35.2465 34.048 35.2465 31.4179C37.5281 32.7492 39.6167 33.9659 41.7024 35.187C42.0183 35.3719 42.0092 35.5646 41.6872 35.7494Z" fill="white"/>
<path d="M52.9071 75.8953C53.7329 75.8453 54.2366 75.412 54.2681 74.6925C54.2877 74.5305 54.2694 74.3664 54.2144 74.2115C54.1594 74.0567 54.0691 73.9147 53.9495 73.7952C53.8299 73.6758 53.684 73.5818 53.5217 73.5195C53.3594 73.4573 53.1845 73.4284 53.009 73.4348C52.1446 73.404 51.6259 73.8513 51.6135 74.6648C51.6015 75.442 52.1319 75.8004 52.9071 75.8953Z" fill="white"/>
<path d="M58.4383 75.88C59.2369 75.7705 59.7486 75.3726 59.706 74.5969C59.6641 73.8342 59.1435 73.4004 58.3238 73.4359C57.5113 73.471 57.0125 73.9389 57.0466 74.6998C57.0807 75.4617 57.6232 75.8356 58.4383 75.88Z" fill="white"/>
<path d="M83.7313 53.698C84.0428 53.4096 84.294 53.0994 84.2595 52.6289C84.2759 52.3978 84.2137 52.1677 84.0817 51.9712C83.9496 51.7747 83.7544 51.6217 83.5236 51.5339C83.2816 51.4112 83.0025 51.3669 82.7304 51.4079C82.4582 51.4488 82.2085 51.5727 82.0206 51.7601C81.2988 52.362 80.6123 52.9993 79.9639 53.6695C79.2289 54.4716 78.6234 54.848 77.7226 53.8067C77.1929 53.1945 76.3919 53.2067 75.7765 53.804C75.1983 54.3653 75.2918 55.0029 75.8254 55.5503C76.3976 56.1372 77.0085 56.694 77.6314 57.2353C78.4934 57.9843 79.0793 57.9857 79.9405 57.2088C81.2205 56.0542 82.4676 54.8682 83.7313 53.698Z" fill="white"/>
<path d="M59.0601 51.5597C58.8258 51.4249 58.5496 51.3668 58.2756 51.3947C58.0015 51.4227 57.7455 51.5351 57.5484 51.7141C56.8495 52.2833 56.1844 52.8873 55.5558 53.5233C54.7923 54.3179 54.1396 54.9399 53.1163 53.75C52.6163 53.1686 51.8329 53.2504 51.2619 53.7915C50.6795 54.3434 50.7391 54.9779 51.2837 55.5296C51.8851 56.1389 52.5336 56.7085 53.1679 57.2894C53.9258 57.9836 54.6687 57.915 55.3957 57.2392C56.6549 56.0687 57.9153 54.8994 59.177 53.7312C59.5146 53.4186 59.804 53.0875 59.7516 52.6136C59.76 52.3944 59.6989 52.1777 59.576 51.9904C59.4531 51.8031 59.2737 51.6533 59.0601 51.5597Z" fill="white"/>
</g>
<defs>
<clipPath id="clip0_1407_8085">
<rect width="114" height="106.025" fill="white"/>
</clipPath>
</defs>
</svg>
