<svg width="114" height="114" viewBox="0 0 114 114" fill="none" xmlns="http://www.w3.org/2000/svg">
<g clip-path="url(#clip0_1399_8391)">
<path d="M22.5769 70.8442L92.1458 47.6201C90.7559 38.9263 89.7651 33.1185 88.6175 28.686C87.3808 23.9186 86.4007 22.643 86.0158 22.2012C84.6744 20.6663 83.0043 19.4533 81.1296 18.6524C80.5878 18.4208 79.0696 17.8828 74.1584 18.1785C68.9621 18.4921 62.1406 19.5539 51.3382 21.2641C40.5393 22.9744 33.7214 24.0754 28.6855 25.3795C23.9205 26.6159 22.641 27.5993 22.1991 27.9841C20.6666 29.3273 19.4548 30.9949 18.6529 32.869C18.4212 33.4106 17.8831 34.9285 18.1789 39.842C18.4925 45.0369 19.5546 51.8602 21.2653 62.6598C21.7429 65.6885 22.1741 68.3964 22.5769 70.8442Z" fill="url(#paint0_linear_1399_8391)"/>
<path d="M3.39539 65.4889C0.0880147 44.5951 -1.56924 34.1482 2.01613 25.7607C3.88515 21.3862 6.71617 17.4891 10.2988 14.3589C17.1666 8.36223 27.6127 6.70896 48.5047 3.39887C69.4039 0.0852195 79.85 -1.56804 88.2432 2.0164C92.6163 3.88554 96.512 6.71583 99.6408 10.297C105.643 17.1666 107.296 27.6135 110.604 48.5109C113.915 69.4047 115.568 79.8552 111.983 88.2391C110.115 92.6133 107.285 96.5105 103.704 99.6409C96.8359 105.641 86.3863 107.294 65.4907 110.604C44.5986 113.915 34.149 115.568 25.763 111.983C21.3898 110.114 17.4942 107.284 14.3653 103.703C8.36359 96.8332 6.7099 86.3863 3.39896 65.4889H3.39539ZM40.2505 102.595C45.846 102.256 53.0524 101.127 63.7194 99.4378C74.39 97.7489 81.5856 96.5945 87.0172 95.1871C92.274 93.8224 94.6975 92.4934 96.2621 91.1252C98.564 89.1127 100.383 86.6076 101.583 83.7959C102.403 81.8861 102.92 79.1711 102.592 73.7481C102.253 68.1541 101.123 60.946 99.4341 50.2782C97.7447 39.6103 96.5936 32.4094 95.1858 26.9828C93.8208 21.7237 92.4879 19.3008 91.1229 17.7367C89.1114 15.4344 86.6068 13.615 83.7953 12.4134C81.885 11.5939 79.1693 11.0773 73.7449 11.4051C68.1494 11.7436 60.9466 12.8731 50.276 14.562C39.609 16.2544 32.4098 17.4053 26.9818 18.8127C21.7214 20.1774 19.3015 21.5099 17.7369 22.8746C15.4338 24.8868 13.6139 27.3919 12.4123 30.2038C11.5961 32.1136 11.0793 34.8287 11.4072 40.2517C11.7458 45.8493 12.872 53.0538 14.5649 63.7216C16.2542 74.3894 17.4054 81.5904 18.8132 87.017C20.1782 92.276 21.5076 94.6989 22.8761 96.2631C24.8877 98.5652 27.3922 100.385 30.2037 101.586C32.114 102.406 34.8262 102.922 40.2541 102.595H40.2505Z" fill="url(#paint1_linear_1399_8391)"/>
</g>
<defs>
<linearGradient id="paint0_linear_1399_8391" x1="2674.44" y1="399.172" x2="3615.27" y2="6275.89" gradientUnits="userSpaceOnUse">
<stop stop-color="#66E3FF"/>
<stop offset="1" stop-color="#7064F9"/>
</linearGradient>
<linearGradient id="paint1_linear_1399_8391" x1="4465.56" y1="-0.029448" x2="6275.71" y2="11306.7" gradientUnits="userSpaceOnUse">
<stop stop-color="#66E3FF"/>
<stop offset="1" stop-color="#7064F9"/>
</linearGradient>
<clipPath id="clip0_1399_8391">
<rect width="114" height="114" fill="white"/>
</clipPath>
</defs>
</svg>
