<svg width="114" height="114" viewBox="0 0 114 114" fill="none" xmlns="http://www.w3.org/2000/svg">
<g clip-path="url(#clip0_1407_8047)">
<path d="M0 0H114V114H0" fill="#F7DF1E"/>
<path d="M72.1406 82.3828C74.6641 86.6875 78.0039 88.8398 82.1602 88.8398C87.3555 88.8398 89.9531 86.8359 89.9531 82.8281C89.9531 80.3789 86.6133 78.1523 81.2695 75.9258C71.3242 72.6602 66.4258 67.0938 66.5742 59.2266C66.5742 51.2109 72.5859 44.9766 82.1602 44.9766C89.2852 44.9766 94.332 47.8711 97.3008 53.6602L89.0625 59.0039C87.2812 55.7383 84.9805 54.1797 82.1602 54.3281C78.8945 54.4766 77.1875 56.0352 77.0391 59.0039C77.0391 62.1211 79.043 63.457 85.7227 66.3516C95.2969 70.1367 100.641 74.3672 100.641 83.4961C100.195 93.1445 94.332 98.1172 83.0508 98.4141C73.6992 98.4141 67.0938 94.7773 63.2344 87.5039L72.1406 82.3828ZM34.2891 83.2734C36.0703 86.168 37.1836 88.8398 41.6367 88.8398C45.1992 88.8398 46.9805 86.6133 46.9805 82.1602V45.1992H57.668V81.7148C57.5195 92.2539 52.1758 97.5977 41.6367 97.7461C33.7695 97.5977 28.4258 94.332 25.6055 87.9492L34.2891 83.2734Z" fill="black"/>
</g>
<defs>
<clipPath id="clip0_1407_8047">
<rect width="114" height="114" rx="16" fill="white"/>
</clipPath>
</defs>
</svg>
