<svg width="114" height="104" viewBox="0 0 114 104" fill="none" xmlns="http://www.w3.org/2000/svg">
<path fill-rule="evenodd" clip-rule="evenodd" d="M0.172607 0H10.7675V70.3118H52.6656V78.9803H0.172608L0.172607 0Z" fill="black"/>
<path fill-rule="evenodd" clip-rule="evenodd" d="M81.5608 20.7083C88.7846 19.7451 96.49 21.1898 102.269 26.0057C108.53 30.34 111.901 38.0454 112.382 45.2692C113.346 53.9378 112.382 62.6063 107.566 69.8302C103.232 75.6092 96.49 79.4619 88.7846 79.9435C81.5608 80.9067 73.3738 79.4619 67.1131 74.646C61.3341 69.8302 58.4446 62.6063 57.4814 55.3825C56.5182 47.6771 57.4814 39.0086 62.2973 32.2663C66.15 25.5241 73.8554 21.1898 81.5608 20.7083ZM83.0055 28.8952C87.8214 28.4136 93.1189 29.8584 96.9715 33.2295C100.343 37.0822 102.269 41.8981 102.751 46.714C103.232 52.0114 102.751 57.7905 100.343 62.6063C97.9347 67.4222 93.6004 70.7933 88.303 71.7565C83.4871 72.7197 78.1896 71.2749 74.8185 68.3854C70.9658 65.4959 68.5579 61.1616 67.5947 56.8273C66.6315 50.5667 67.1131 44.306 69.5211 38.527C71.929 33.2295 77.2265 29.3768 83.0055 28.8952Z" fill="black"/>
<path fill-rule="evenodd" clip-rule="evenodd" d="M0.172607 91.5016H113.827V103.541H0.172607V91.5016Z" fill="#3492FF"/>
</svg>
