<svg width="114" height="114" viewBox="0 0 114 114" fill="none" xmlns="http://www.w3.org/2000/svg">
<path d="M66.6405 20.0884C61.9827 15.3578 57.9718 10.5533 57.1524 9.55543C57.0659 9.48152 56.9367 9.48152 56.8508 9.55543C56.0309 10.5533 52.0205 15.3578 47.3626 20.0884C7.38417 63.7355 53.6592 93.1912 53.6592 93.1912L54.0473 93.4126C54.3922 97.9583 55.2548 104.5 55.2548 104.5H56.9795H58.7047C58.7047 104.5 59.5678 97.9949 59.9126 93.4126L60.3007 93.1542C60.3434 93.1542 106.619 63.7355 66.6405 20.0884ZM56.9795 92.5257C56.9795 92.5257 54.9099 91.0105 54.3489 90.2338V90.1602L56.8508 42.6327C56.8508 42.4848 57.1092 42.4848 57.1092 42.6327L59.611 90.1602V90.2338C59.05 91.0105 56.9795 92.5257 56.9795 92.5257Z" fill="#22C55E"/>
</svg>
