<svg width="100" height="102" viewBox="0 0 100 102" fill="none" xmlns="http://www.w3.org/2000/svg">
<g clip-path="url(#clip0_1425_8463)">
<path opacity="0.2" d="M0.125 93.1063V96.6688C0.125 99.4297 2.35082 101.656 5.11385 101.656H94.8876C97.6485 101.656 99.875 99.4297 99.875 96.6688V93.1063C99.875 95.8672 97.6485 98.0938 94.8876 98.0938H5.11385C2.35224 98.0938 0.125 95.8672 0.125 93.1063Z" fill="black"/>
<path d="M94.8875 0.125H5.1125C2.35798 0.125 0.125 2.35798 0.125 5.1125V94.8875C0.125 97.642 2.35798 99.875 5.1125 99.875H94.8875C97.642 99.875 99.875 97.642 99.875 94.8875V5.1125C99.875 2.35798 97.642 0.125 94.8875 0.125Z" fill="#26557C"/>
<path opacity="0.2" d="M21.5901 19.7203C18.8025 19.6612 17.4954 21.5885 18.0693 24.9108C18.2546 25.9817 19.1922 27.511 21.2142 30.0475C23.4629 32.865 24.3675 34.4033 25.3474 37.068C26.8921 41.2692 27.6061 42.6782 28.8611 43.9913C29.836 45.0112 29.8362 45.0141 29.1812 47.0945C28.1656 50.3205 27.9555 56.7868 28.7707 59.8274C29.9908 64.3781 31.4925 66.4443 33.5857 66.4443C35.0808 66.4443 36.3061 65.1942 36.7446 63.2228C36.8966 62.5393 37.181 61.5624 37.3778 61.0519C37.7174 60.171 37.8086 60.239 39.1381 62.4087C39.9086 63.6661 41.3777 65.5387 42.4014 66.5696C44.7661 68.9509 48.0119 71.6344 48.2459 71.4053C48.3448 71.3086 47.3981 69.9028 46.1447 68.2742C44.8912 66.6457 42.5284 62.8632 40.8915 59.869C38.9822 56.3767 37.6863 54.4234 37.2802 54.4209C35.9605 54.412 34.7299 56.4873 34.0169 59.9317C33.1956 63.8995 31.7485 63.2343 30.5728 58.3453C29.8952 55.5279 30.2484 51.7334 31.5121 48.1798C32.0869 46.5633 32.5558 45.0672 32.5558 44.8609C32.5558 44.6546 31.6391 42.9248 30.5171 41.0131C29.3949 39.1001 28.0764 36.3926 27.5887 34.9926C26.4039 31.594 25.8414 30.6036 23.4627 27.7145C21.0121 24.7413 20.7802 23.3672 22.7321 23.3804C24.248 23.3904 26.6946 24.4115 29.1541 26.0662C30.7112 27.1137 31.2389 27.256 33.7393 27.256C36.8793 27.256 37.5543 27.5132 41.908 30.3801C46.3415 33.2998 49.6464 36.0134 51.9345 38.6182C53.9665 40.9316 55.0766 42.9423 61.0562 55.2057C63.3516 59.9131 65.3874 62.1856 68.195 63.1585C72.5315 64.6613 74.0078 65.3428 75.9184 66.714L77.9362 68.1613L76.5794 68.4257C75.8302 68.5693 74.198 68.8038 72.9542 68.9475C70.3629 69.2467 68.6682 70.3216 68.6682 71.668C68.6682 73.1853 73.8384 77.5293 79.0214 80.3654C81.5117 81.7279 83.9077 83.0702 84.3441 83.3503C85.5054 84.0957 85.8198 84.0054 85.52 83.0233C84.8921 80.9664 82.767 78.9628 76.8643 74.8478C73.4017 72.4339 73.366 72.5235 77.9915 72.0647C81.2868 71.7405 82.9504 71.1776 82.9504 70.3832C82.9504 70.0198 81.2761 68.089 79.2277 66.0976C76.0215 62.9769 74.9385 62.2002 71.4081 60.4796C66.5988 58.1426 64.846 56.2866 63.7381 52.3465C62.0851 46.472 57.6392 39.568 51.7291 33.7149C45.6302 27.673 39.8056 24.33 34.469 23.8063C32.2995 23.5933 31.1773 23.2641 30.0552 22.5049C28.1557 21.2185 23.7436 19.7676 21.5887 19.722L21.5901 19.7203ZM32.1453 30.4148C31.7083 30.3866 31.3279 30.4451 31.0668 30.6235C30.0928 31.2897 30.2083 32.1021 31.3521 32.6065C31.8897 32.8436 32.6524 33.6805 33.0498 34.4643C34.3861 37.0997 36.4336 35.3353 35.5199 32.3351C35.2318 31.3894 33.4561 30.4988 32.1453 30.4148Z" fill="black"/>
<path d="M21.5901 17.9387C18.8025 17.8796 17.4954 19.8068 18.0693 23.1292C18.2546 24.2001 19.1922 25.7305 21.2142 28.2641C23.4629 31.0806 24.3677 32.6196 25.3474 35.2843C26.8921 39.4844 27.606 40.8951 28.8596 42.2061C29.8357 43.2285 29.8357 43.2321 29.1802 45.3126C28.1657 48.5366 27.9555 55.0024 28.7706 58.0448C29.9889 62.594 31.4923 64.6602 33.587 64.6602C35.0797 64.6602 36.3051 63.4098 36.7433 61.4398C36.8965 60.7558 37.1815 59.7797 37.3774 59.2702C37.7159 58.3867 37.8085 58.4544 39.1373 60.624C39.9068 61.8815 41.3781 63.7554 42.4005 64.7849C44.766 67.1682 48.0113 69.8507 48.2465 69.6227C48.3462 69.5265 47.3986 68.1194 46.1446 66.4913C44.8906 64.8633 42.5287 61.08 40.89 58.0875C38.9805 54.5927 37.6874 52.6405 37.2812 52.637C35.9596 52.6298 34.7305 54.7032 34.018 58.1481C33.1951 62.1166 31.7488 61.4505 30.5732 56.5628C29.8963 53.7449 30.249 49.9509 31.5136 46.3955C32.0872 44.7818 32.5574 43.2855 32.5574 43.0789C32.5574 42.8723 31.6383 41.1409 30.5162 39.2315C29.394 37.3184 28.0755 34.611 27.5878 33.2109C26.4029 29.8123 25.8404 28.822 23.4618 25.9332C21.0112 22.9593 20.7793 21.5856 22.7311 21.5984C24.247 21.6087 26.6936 22.6297 29.1517 24.2841C30.7121 25.3319 31.2393 25.474 33.7402 25.474C36.8787 25.474 37.552 25.7312 41.9089 28.5983C46.3406 31.5188 49.6465 34.2333 51.9336 36.8375C53.9642 39.1495 55.0757 41.1623 61.057 53.4243C63.3512 58.1303 65.3854 60.4031 68.1926 61.3756C72.5317 62.879 74.0065 63.5594 75.916 64.931L77.9359 66.3809L76.5786 66.6445C75.8305 66.787 74.1953 67.0221 72.952 67.1646C70.3621 67.4639 68.6664 68.5397 68.6664 69.8863C68.6664 71.4039 73.8355 75.7466 79.0189 78.5823C81.5126 79.9467 83.9066 81.2897 84.3448 81.5676C85.5061 82.3157 85.8196 82.2231 85.5204 81.2434C84.8898 79.1843 82.7666 77.1822 76.8636 73.0676C73.4009 70.6523 73.3653 70.7413 77.9893 70.2818C81.2882 69.954 82.9518 69.3912 82.9518 68.6003C82.9518 68.2369 81.2775 66.3061 79.2291 64.3147C76.0229 61.1904 74.9399 60.4173 71.4095 58.6967C66.6002 56.3597 64.8475 54.5037 63.7396 50.5636C62.0866 44.6856 57.6406 37.7851 51.7305 31.932C45.6316 25.8883 39.807 22.5467 34.4705 22.023C32.3009 21.81 31.1788 21.4808 30.0566 20.7217C28.1571 19.4353 23.745 17.9843 21.5901 17.9387ZM32.1442 28.6332C31.7096 28.605 31.3284 28.6617 31.0683 28.8434C30.0922 29.5095 30.2098 30.3218 31.3533 30.8241C31.8913 31.0628 32.6536 31.8999 33.0491 32.6837C34.385 35.3163 36.4334 33.5529 35.5214 30.5533C35.2328 29.6093 33.4552 28.7187 32.1442 28.6332Z" fill="white"/>
<path opacity="0.1" d="M5.11389 0.125C2.35086 0.125 0.125 2.35086 0.125 5.11389V6.89862C0.125 4.13558 2.35086 1.90973 5.11389 1.90973H94.8861C97.647 1.90973 99.875 4.13558 99.875 6.89862V5.11389C99.875 2.35086 97.647 0.125 94.8861 0.125H5.11389Z" fill="white"/>
</g>
<defs>
<clipPath id="clip0_1425_8463">
<rect width="100" height="102" rx="24" fill="white"/>
</clipPath>
</defs>
</svg>
