<svg width="114" height="130" viewBox="0 0 114 130" fill="none" xmlns="http://www.w3.org/2000/svg">
<g clip-path="url(#clip0_1425_8455)">
<path d="M0.914613 97.1613C1.50258 98.2066 2.35186 98.9905 3.39713 99.5785L53.7009 128.585C55.7914 129.826 58.3393 129.826 60.3645 128.585L110.668 99.5785C112.759 98.4026 114 96.1814 114 93.7642V35.7516C114 33.3344 112.759 31.1132 110.668 29.9373L60.3645 0.930946C58.2739 -0.310315 55.7261 -0.310315 53.7009 0.930946L3.39713 29.9373C1.24126 31.1132 0 33.3344 0 35.7516V93.8295C0 95.0054 0.261318 96.116 0.914613 97.1613Z" fill="#009639"/>
<path d="M40.8962 86.9046C40.8962 90.4977 38.0217 93.3722 34.4286 93.3722C30.8354 93.3722 27.9609 90.4977 27.9609 86.9046V42.5458C27.9609 39.0834 31.0314 36.2742 35.2778 36.2742C38.3483 36.2742 41.9415 37.5155 44.0973 40.194L46.0572 42.5458L73.1036 74.8839V42.6765C73.1036 39.0834 75.9781 36.2089 79.5713 36.2089C83.1644 36.2089 86.0389 39.0834 86.0389 42.6765V87.0352C86.0389 90.4977 82.9684 93.3069 78.722 93.3069C75.6515 93.3069 72.0584 92.0656 69.9025 89.3871L40.8962 54.7624V86.9046Z" fill="white"/>
</g>
<defs>
<clipPath id="clip0_1425_8455">
<rect width="114" height="129.586" fill="white"/>
</clipPath>
</defs>
</svg>
