<svg width="114" height="114" viewBox="0 0 114 114" fill="none" xmlns="http://www.w3.org/2000/svg">
<g clip-path="url(#clip0_1425_8444)">
<path d="M0 0H114V114H0" fill="white"/>
<path d="M57 99.75C80.6102 99.75 99.75 80.6102 99.75 57C99.75 33.3898 80.6102 14.25 57 14.25C33.3898 14.25 14.25 33.3898 14.25 57C14.25 80.6102 33.3898 99.75 57 99.75Z" fill="#FF6C37"/>
<path d="M45.1992 59.6719L51.8789 58.1133L48.9844 55.2188L45.1992 59.6719ZM77.2617 30.2813C76.2818 30.2535 75.3085 30.4492 74.4155 30.8535C73.5225 31.2578 72.7333 31.8602 72.1077 32.6148C71.4821 33.3695 71.0365 34.2567 70.8048 35.2092C70.573 36.1617 70.5612 37.1544 70.7702 38.1121C70.9791 39.0699 71.4034 39.9675 72.0108 40.7368C72.6182 41.5062 73.3929 42.1272 74.276 42.5527C75.1591 42.9782 76.1275 43.1971 77.1077 43.1927C78.088 43.1883 79.0543 42.9608 79.9336 42.5274L75.4805 38.0742V37.4063L81.2695 31.6172C80.1212 30.7351 78.7097 30.2646 77.2617 30.2813Z" fill="white"/>
<path d="M81.9375 32.5078L76.5938 37.8516L80.8242 41.8594L81.7148 41.1914C82.8253 40.031 83.4634 38.4983 83.5046 36.8926C83.5458 35.287 82.987 33.7236 81.9375 32.5078ZM71.25 42.3047H70.582L70.3594 42.5273H70.1367L69.9141 42.75L54.1055 58.5586L56.1094 60.5625L72.8086 45.8672L73.0312 45.6445L73.2539 44.9766L73.4766 44.7539V43.8633C73.3836 43.448 73.1609 43.0731 72.8406 42.7929C72.5204 42.5127 72.1192 42.3417 71.6953 42.3047H71.25ZM50.0977 54.5508L53.2148 57.8906L69.0234 42.082C69.6172 41.6367 70.2852 41.3398 71.0273 41.1914C68.1328 38.9648 65.2383 39.6328 50.0977 54.5508ZM73.6992 46.5352L73.4766 46.7578L56.7773 61.4531L59.6719 64.125C66.5742 57.4453 72.8086 51.2109 73.6992 46.5352ZM32.0625 80.8242L39.4102 81.4922L35.4023 77.2617L32.0625 80.8242ZM36.0703 76.5938L40.3008 80.8242L40.5234 81.0469L40.7461 80.8242L40.9688 80.6016L40.3008 77.4844C40.2231 77.2767 40.2257 77.0475 40.308 76.8416C40.3904 76.6357 40.5466 76.4679 40.7461 76.3711C48.3164 72.6602 54.3281 68.8008 58.7812 64.793L55.8867 61.8984L49.4297 63.2344L36.0703 76.5938ZM54.7734 61.0078L53.2148 59.4492L50.9883 61.6758L51.2109 61.8984L54.7734 61.0078Z" fill="white"/>
<path d="M82.1379 35.9145C82.1086 35.856 82.0682 35.8039 82.0188 35.761C81.9694 35.7182 81.912 35.6855 81.85 35.6648C81.788 35.6442 81.7225 35.6359 81.6573 35.6405C81.592 35.6452 81.5284 35.6626 81.4699 35.6918C81.4114 35.7211 81.3593 35.7616 81.3164 35.8109C81.2736 35.8603 81.2409 35.9177 81.2202 35.9797C81.1995 36.0417 81.1913 36.1072 81.1959 36.1724C81.2006 36.2377 81.218 36.3013 81.2472 36.3598C81.3666 36.6179 81.4131 36.9036 81.3817 37.1862C81.3503 37.4688 81.2422 37.7374 81.0691 37.9629C80.9864 38.0633 80.947 38.1924 80.9596 38.3219C80.9721 38.4513 81.0355 38.5705 81.1359 38.6532C81.2363 38.7358 81.3654 38.7752 81.4949 38.7627C81.6243 38.7502 81.7435 38.6868 81.8261 38.5864C82.1332 38.22 82.3263 37.7718 82.3816 37.2971C82.437 36.8223 82.3523 36.3417 82.1379 35.9145Z" fill="#FF6C37"/>
</g>
<defs>
<clipPath id="clip0_1425_8444">
<rect width="114" height="114" rx="24" fill="white"/>
</clipPath>
</defs>
</svg>
