<svg width="114" height="118" viewBox="0 0 114 118" fill="none" xmlns="http://www.w3.org/2000/svg">
<g clip-path="url(#clip0_1425_8371)">
<path d="M113.558 70.3977C112.875 68.3274 111.084 66.8855 108.768 66.5395C107.677 66.3765 106.426 66.446 104.946 66.751C102.367 67.2831 100.454 67.4858 99.057 67.5249C104.328 58.6254 108.614 48.4767 111.082 38.9234C115.072 23.476 112.94 16.4387 110.448 13.2556C103.854 4.83029 94.2343 0.304138 82.6286 0.165646C76.4374 0.0899424 71.0023 1.31233 68.167 2.19137C65.5272 1.72558 62.6888 1.46551 59.7106 1.41742C54.1277 1.32836 49.195 2.5454 44.9801 5.04672C42.6466 4.25762 38.9016 3.14523 34.5767 2.4354C24.4049 0.765481 16.2067 2.06668 10.2101 6.30294C2.94881 11.4321 -0.417303 20.3436 0.205244 32.7901C0.402962 36.7418 2.61349 48.7653 6.09406 60.1679C8.0944 66.7221 10.2274 72.1647 12.434 76.3461C15.5632 82.2755 18.9115 85.7672 22.6704 87.0212C24.7771 87.723 28.605 88.2146 32.6311 84.8614C33.1414 85.4795 33.8223 86.0936 34.7259 86.664C35.8734 87.3877 37.2766 87.979 38.678 88.3295C43.7283 89.592 48.4589 89.2762 52.4947 87.5066C52.5197 88.2244 52.5388 88.9102 52.5548 89.5025C52.5816 90.463 52.6083 91.4048 52.6435 92.2857C52.8826 98.2413 53.2878 102.872 54.4884 106.112C54.5543 106.29 54.6429 106.562 54.7364 106.85C55.3354 108.684 56.3369 111.754 58.885 114.158C61.5234 116.649 64.715 117.412 67.638 117.412C69.104 117.412 70.5027 117.22 71.7295 116.957C76.1025 116.02 81.0691 114.592 84.6619 109.477C88.0587 104.64 89.7099 97.3564 90.0087 85.8794C90.0475 85.5548 90.0831 85.2448 90.1174 84.9496L90.1886 84.3431L90.9889 84.4134L91.195 84.4272C95.6491 84.6303 101.095 83.6858 104.44 82.1321C107.083 80.9057 115.552 76.4343 113.558 70.3977Z" fill="black"/>
<path d="M105.942 71.5715C92.6989 74.3035 91.7882 69.8196 91.7882 69.8196C105.771 49.0712 111.617 22.7341 106.573 16.2882C92.8106 -1.29499 68.9887 7.02078 68.591 7.23631L68.4632 7.25947C65.8465 6.71618 62.9186 6.39289 59.6273 6.339C53.6352 6.24104 49.0894 7.91007 45.64 10.5258C45.64 10.5258 3.14385 -6.98118 5.1206 32.5439C5.54097 40.9523 17.1725 96.167 31.0458 79.4896C36.1166 73.391 41.0163 68.2348 41.0163 68.2348C43.4495 69.8513 46.3628 70.676 49.4167 70.3798L49.6541 70.1786C49.5801 70.9356 49.614 71.6761 49.7489 72.553C46.1748 76.5461 47.2253 77.247 40.0807 78.7179C32.8511 80.2079 37.098 82.8602 39.871 83.554C43.2327 84.3943 51.0096 85.585 56.2643 78.2289L56.055 79.0683C57.4551 80.1901 58.4383 86.3639 58.2735 91.961C58.1088 97.5577 57.9988 101.4 59.1018 104.402C60.2057 107.403 61.3052 114.156 70.6978 112.144C78.5455 110.462 82.6125 106.104 83.1785 98.8335C83.5798 93.6652 84.4886 94.4294 84.5456 89.8084L85.2746 87.621C86.1149 80.6149 85.4082 78.3545 90.243 79.4059L91.4186 79.5092C94.9766 79.6708 99.6346 78.9365 102.368 77.666C108.255 74.9345 111.746 70.3732 105.942 71.5715H105.942Z" fill="#336791"/>
<path d="M48.1275 36.3041C46.934 36.138 45.8533 36.2917 45.3064 36.7058C44.9991 36.9387 44.9038 37.2086 44.878 37.3943C44.8094 37.8863 45.1541 38.4305 45.3661 38.711C45.9655 39.5055 46.841 40.0514 47.7075 40.1717C47.8331 40.1895 47.9582 40.1975 48.0825 40.1975C49.5275 40.1975 50.8416 39.0722 50.9574 38.2417C51.1021 37.2014 49.5921 36.5076 48.1275 36.3041ZM87.6641 36.3371C87.5501 35.5217 86.0993 35.2893 84.7224 35.4807C83.3472 35.6722 82.014 36.293 82.1253 37.1101C82.2144 37.7456 83.3619 38.8304 84.7201 38.8304C84.835 38.8304 84.9508 38.8228 85.0675 38.8063C85.9741 38.6808 86.6394 38.105 86.9556 37.7732C87.4365 37.2673 87.7153 36.7036 87.6641 36.3371Z" fill="white"/>
<path d="M110.349 71.2612C109.844 69.7342 108.219 69.243 105.518 69.8005C97.5006 71.4553 94.6292 70.3091 93.6865 69.6148C99.9186 60.1208 105.046 48.6442 107.811 37.9366C109.121 32.8645 109.845 28.154 109.904 24.3145C109.97 20.1005 109.252 17.0038 107.772 15.1122C101.804 7.48618 93.0443 3.39554 82.4415 3.28332C75.1521 3.20138 68.9935 5.06679 67.7996 5.59137C65.2853 4.96615 62.5444 4.58229 59.5604 4.53331C54.0884 4.44469 49.3583 5.7548 45.4422 8.42534C43.7411 7.79211 39.345 6.28294 33.9687 5.41681C24.6742 3.92056 17.2882 5.05433 12.0175 8.78827C5.72835 13.2441 2.82491 21.2089 3.38734 32.4611C3.5766 36.2467 5.73369 47.8925 9.13766 59.0453C13.6184 73.7246 18.4892 82.0346 23.6139 83.7442C24.2137 83.9441 24.9053 84.0839 25.6681 84.0839C27.5375 84.0839 29.8296 83.2414 32.2142 80.3745C35.1228 76.8853 38.1315 73.4808 41.2367 70.1652C43.2513 71.2465 45.4645 71.8503 47.728 71.9109C47.7325 71.9701 47.7382 72.0293 47.7436 72.0881C47.354 72.5527 46.9724 73.0241 46.5991 73.502C45.0307 75.493 44.7043 75.9075 39.6558 76.9469C38.2197 77.2435 34.4056 78.0295 34.3495 80.7031C34.2889 83.6244 38.8583 84.8512 39.3788 84.9812C41.193 85.4355 42.9409 85.6594 44.6077 85.6594C48.6614 85.6594 52.2288 84.3271 55.0797 81.7492C54.9919 92.1632 55.4261 102.425 56.6766 105.552C57.7008 108.111 60.2025 114.367 68.1051 114.366C69.2647 114.366 70.5409 114.231 71.945 113.93C80.1926 112.162 83.7743 108.517 85.1596 100.48C85.9011 96.1853 87.1733 85.9293 87.7718 80.4279C89.0348 80.822 90.6606 81.0024 92.4182 81.0019C96.084 81.0019 100.314 80.2231 102.967 78.9918C105.947 77.6077 111.324 74.2118 110.349 71.2612ZM90.7082 34.0865C90.6811 35.7105 90.4575 37.185 90.2206 38.724C89.9654 40.3792 89.7018 42.0905 89.6355 44.1679C89.57 46.1896 89.8225 48.2915 90.0665 50.3243C90.5599 54.4301 91.0663 58.657 89.1064 62.8278C88.7809 62.251 88.4909 61.6548 88.2381 61.0426C87.9945 60.4521 87.4655 59.5036 86.7329 58.1908C83.8834 53.0804 77.2104 41.1131 80.6264 36.2298C81.6439 34.7763 84.2263 33.2818 90.7082 34.0865ZM82.8511 6.57195C92.3514 6.78169 99.8665 10.3357 105.187 17.1348C109.268 22.3498 104.774 46.0792 91.7654 66.5506C91.6346 66.3843 91.5031 66.2185 91.3709 66.0532L91.2061 65.8475C94.5678 60.2958 93.9105 54.8028 93.3253 49.9329C93.0849 47.9344 92.8578 46.0467 92.9156 44.2734C92.9753 42.3942 93.2238 40.7822 93.4643 39.2236C93.7595 37.303 94.0601 35.3155 93.9773 32.9727C94.0392 32.7269 94.0641 32.4366 94.0316 32.0919C93.8201 29.8453 91.2551 23.1215 86.0271 17.0359C83.1673 13.7072 78.997 9.98215 73.3027 7.4697C75.752 6.96204 79.1012 6.48868 82.8511 6.57195ZM29.6906 78.2762C27.0633 81.4352 25.2491 80.8296 24.6524 80.631C20.7648 79.3342 16.2538 71.1173 12.2767 58.0875C8.8353 46.8131 6.82426 35.4758 6.66484 32.2968C6.16253 22.2425 8.59973 15.2355 13.9092 11.4699C22.55 5.34244 36.7564 9.01004 42.4649 10.8701C42.3829 10.9512 42.2974 11.0269 42.2164 11.1092C32.8488 20.5695 33.071 36.7325 33.0941 37.7207C33.0933 38.1019 33.1253 38.6416 33.169 39.3839C33.3302 42.1025 33.6303 47.1622 32.8287 52.892C32.0842 58.2166 33.7256 63.4281 37.3313 67.1906C37.7013 67.5759 38.0903 67.9427 38.4967 68.2896C36.8918 70.0085 33.4036 73.8097 29.6906 78.2762ZM39.7008 64.9199C36.7947 61.8873 35.4748 57.6693 36.0791 53.3462C36.9252 47.2935 36.613 42.0219 36.4451 39.1898C36.4215 38.7934 36.4006 38.4461 36.3886 38.1722C37.757 36.9587 44.0987 33.561 48.6213 34.5972C50.6849 35.0697 51.9424 36.4751 52.4652 38.8923C55.171 51.4069 52.8233 56.6228 50.9369 60.8146C50.5482 61.678 50.1808 62.4943 49.8673 63.3386L49.6241 63.9914C49.0087 65.6418 48.4361 67.1763 48.0811 68.6334C44.9916 68.6245 41.9861 67.3046 39.7008 64.9195V64.9199ZM40.1751 81.7972C39.2729 81.5719 38.4615 81.1805 37.9855 80.8559C38.3831 80.6688 39.0907 80.4141 40.318 80.1612C46.2571 78.9388 47.1745 78.0758 49.1775 75.5326C49.6366 74.9492 50.1572 74.2884 50.8781 73.4833L50.879 73.4824C51.9527 72.28 52.4439 72.484 53.3345 72.8536C54.0563 73.152 54.7595 74.0568 55.0445 75.0525C55.1794 75.5228 55.3308 76.4152 54.8352 77.1099C50.651 82.9684 44.5538 82.8932 40.1751 81.7972ZM71.2574 110.721C63.9917 112.278 61.4191 108.571 59.7238 104.333C58.6297 101.597 58.0918 89.2589 58.4734 75.6337C58.4783 75.4524 58.4525 75.2774 58.4026 75.1127C58.358 74.7873 58.2901 74.4656 58.1995 74.1499C57.6322 72.1674 56.2495 70.509 54.5907 69.8215C53.9316 69.5485 52.7222 69.0475 51.2687 69.4193C51.5786 68.1422 52.1161 66.6998 52.699 65.1381L52.9435 64.4813C53.2187 63.7407 53.5643 62.9734 53.9294 62.1612C55.9035 57.7758 58.607 51.7689 55.6728 38.1989C54.5738 33.1161 50.9035 30.634 45.3398 31.2106C42.0044 31.5558 38.9527 32.9015 37.4306 33.6732C37.1033 33.8389 36.804 33.9992 36.5244 34.155C36.9492 29.034 38.5541 19.4633 44.5578 13.4079C48.3381 9.59607 53.3723 7.71329 59.5061 7.81482C71.5919 8.01254 79.3421 14.2148 83.7159 19.3836C87.4851 23.8372 89.5259 28.3237 90.3404 30.7435C84.2151 30.1205 80.0492 31.3295 77.9376 34.3488C73.3433 40.9162 80.4509 53.6629 83.8669 59.789C84.4934 60.9116 85.0341 61.882 85.2042 62.2943C86.3166 64.9903 87.7567 66.7902 88.8081 68.1039C89.1305 68.5065 89.4431 68.897 89.6809 69.2381C87.8257 69.7729 84.4934 71.0087 84.7971 77.1856C84.5522 80.285 82.8106 94.7959 81.9258 99.9228C80.7577 106.696 78.2653 109.219 71.2574 110.722V110.721ZM101.585 76.0153C99.688 76.8957 96.5133 77.5561 93.4977 77.6981C90.1667 77.854 88.471 77.325 88.072 76.9995C87.8849 73.1502 89.3175 72.7481 90.8338 72.3223C91.0721 72.2555 91.3045 72.1901 91.5289 72.1117C91.6683 72.2253 91.8211 72.3379 91.9885 72.4484C94.6657 74.2154 99.4408 74.406 106.182 73.0144L106.256 72.9997C105.347 73.8498 103.791 74.9906 101.585 76.0153Z" fill="white"/>
</g>
<defs>
<clipPath id="clip0_1425_8371">
<rect width="114" height="117.574" fill="white"/>
</clipPath>
</defs>
</svg>
