<svg width="114" height="114" viewBox="0 0 114 114" fill="none" xmlns="http://www.w3.org/2000/svg">
<path fill-rule="evenodd" clip-rule="evenodd" d="M89.8108 86.2481L45.3829 99.4935C45.0733 99.5874 44.7448 99.5993 44.4292 99.5282C44.1137 99.4572 43.8219 99.3055 43.5825 99.0879C43.3431 98.8704 43.1642 98.5946 43.0633 98.2873C42.9624 97.98 42.9429 97.6517 43.0067 97.3346L58.8812 20.7017C58.9483 20.3887 59.1119 20.1045 59.3488 19.8892C59.5857 19.6739 59.8842 19.5383 60.2022 19.5013C60.5202 19.4644 60.8418 19.528 61.1218 19.6832C61.4018 19.8385 61.6261 20.0775 61.7633 20.3668L91.1503 83.2841C91.2821 83.5639 91.3516 83.8689 91.354 84.1781C91.3564 84.4873 91.2917 84.7934 91.1644 85.0752C91.037 85.357 90.8501 85.6078 90.6164 85.8103C90.3827 86.0128 90.1078 86.1622 89.8108 86.2481ZM97.431 83.1203L63.4127 10.2707C62.9945 9.37216 62.3395 8.60453 61.5178 8.0503C60.6962 7.49607 59.7391 7.17619 58.7494 7.12501C57.7595 7.05693 56.7701 7.26338 55.8901 7.72161C55.0101 8.17985 54.2737 8.87209 53.7619 9.72207L16.8722 69.996C16.3095 70.9084 16.0168 71.9615 16.0282 73.0334C16.0395 74.1053 16.3544 75.152 16.9363 76.0523L34.9768 104.228C35.6566 105.281 36.6592 106.085 37.8345 106.521C39.0097 106.956 40.2944 106.999 41.4962 106.643L93.8649 91.029C94.6559 90.7986 95.3875 90.3995 96.0094 89.8592C96.6312 89.3189 97.1286 88.6502 97.4672 87.8992C97.8058 87.1482 97.9776 86.3327 97.9707 85.5089C97.9639 84.6852 97.7785 83.8727 97.4274 83.1274L97.431 83.1203Z" fill="#0C344B"/>
</svg>
