<svg width="114" height="102" viewBox="0 0 114 102" fill="none" xmlns="http://www.w3.org/2000/svg">
<g clip-path="url(#clip0_1401_8478)">
<path d="M93.7309 32.8746C92.5483 32.4675 91.3229 32.0824 90.0611 31.7182C90.2685 30.8718 90.4588 30.0364 90.6281 29.2152C93.406 15.7306 91.5897 4.86738 85.3875 1.29074C79.4403 -2.13879 69.7143 1.43704 59.8914 9.98559C58.9468 10.8076 57.9996 11.6779 57.0528 12.59C56.4219 11.9866 55.792 11.4034 55.1638 10.8456C44.8691 1.70489 34.5503 -2.14711 28.3542 1.43988C22.4128 4.87935 20.6532 15.0918 23.1538 27.8712C23.3953 29.1056 23.6775 30.3661 23.9967 31.6477C22.5363 32.0623 21.1264 32.5043 19.7774 32.9744C7.70806 37.1823 0 43.7772 0 50.6178C0 57.6828 8.27461 64.7691 20.8458 69.0659C21.8379 69.405 22.8673 69.7256 23.9281 70.03C23.5838 71.4161 23.2843 72.7745 23.0329 74.0993C20.6486 86.6569 22.5106 96.6281 28.4362 100.046C34.5568 103.575 44.829 99.9475 54.8314 91.2041C55.622 90.513 56.4154 89.78 57.2102 89.0118C58.2404 90.0039 59.269 90.9427 60.2921 91.8234C69.9807 100.161 79.5497 103.527 85.4699 100.1C91.5844 96.5603 93.5716 85.8489 90.9917 72.8167C90.7946 71.8213 90.5654 70.8045 90.3078 69.7696C91.0292 69.5564 91.7374 69.3362 92.4279 69.1073C105.497 64.7772 114 57.7771 114 50.6178C114 43.7524 106.043 37.1132 93.7309 32.8746ZM90.8963 64.4846C90.2729 64.691 89.6333 64.8905 88.9816 65.0838C87.5388 60.5163 85.5916 55.6595 83.2087 50.6415C85.4827 45.7431 87.3546 40.9483 88.7569 36.4104C89.9231 36.7479 91.055 37.1038 92.1457 37.4794C102.695 41.111 109.13 46.4805 109.13 50.6178C109.13 55.0248 102.18 60.7456 90.8963 64.4846ZM86.2142 73.7625C87.355 79.5251 87.5179 84.7353 86.7623 88.8083C86.0833 92.4681 84.7178 94.9082 83.0296 95.8854C79.4369 97.9649 71.754 95.2619 63.4682 88.1317C62.5184 87.3144 61.5616 86.4416 60.6018 85.5179C63.814 82.0048 67.0244 77.9207 70.1576 73.3848C75.6687 72.8958 80.8754 72.0963 85.5971 71.0048C85.8296 71.9429 86.0362 72.8629 86.2142 73.7625ZM38.8652 95.5261C35.3551 96.7657 32.5595 96.8012 30.8696 95.8268C27.2737 93.7528 25.7788 85.7468 27.8179 75.0076C28.0514 73.7777 28.3294 72.5143 28.6499 71.2229C33.3198 72.2556 38.4884 72.9987 44.0126 73.4465C47.167 77.8849 50.4701 81.9646 53.7988 85.5368C53.0715 86.2389 52.3471 86.9073 51.6267 87.5372C47.2037 91.4034 42.7714 94.1464 38.8652 95.5261ZM22.4209 64.4576C16.8621 62.5577 12.2715 60.0884 9.12484 57.3938C6.29737 54.9724 4.86984 52.5684 4.86984 50.6178C4.86984 46.4667 11.0587 41.1719 21.3805 37.5732C22.6329 37.1365 23.944 36.725 25.3045 36.3384C26.7311 40.9787 28.6024 45.8303 30.8607 50.7363C28.5732 55.7151 26.6753 60.644 25.2347 65.3387C24.2648 65.0599 23.3251 64.7665 22.4209 64.4576ZM27.9331 26.936C25.7907 15.9869 27.2136 7.72731 30.7941 5.6547C34.6079 3.44674 43.0414 6.59482 51.9301 14.4873C52.4983 14.9918 53.0687 15.5198 53.6407 16.066C50.3284 19.6226 47.0556 23.6716 43.9292 28.0839C38.5677 28.5808 33.4355 29.3791 28.7168 30.4481C28.4202 29.2547 28.1574 28.0823 27.9331 26.936ZM77.1076 39.0784C75.9796 37.13 74.8215 35.2276 73.6409 33.3772C77.2783 33.837 80.7632 34.4474 84.0358 35.1944C83.0533 38.3432 81.8287 41.6356 80.3872 45.0107C79.3531 43.0475 78.2594 41.068 77.1076 39.0784ZM57.0544 19.5465C59.3007 21.9801 61.5502 24.6972 63.7629 27.6452C61.5332 27.5399 59.2759 27.4851 57 27.4851C54.7456 27.4851 52.505 27.5386 50.2891 27.6421C52.5039 24.7215 54.773 22.0081 57.0544 19.5465ZM36.8727 39.1121C35.7459 41.066 34.6725 43.0347 33.6546 45.0071C32.2364 41.6437 31.0232 38.3363 30.0321 35.1428C33.2847 34.4149 36.7532 33.8198 40.3674 33.3687C39.1702 35.2362 38.0026 37.1529 36.8727 39.1121ZM40.4715 68.2143C36.7374 67.7977 33.2167 67.2331 29.965 66.5254C30.9719 63.2748 32.2119 59.8968 33.6601 56.461C34.6806 58.432 35.7583 60.4015 36.892 62.3597C38.0468 64.3545 39.2434 66.3086 40.4715 68.2143ZM57.1891 82.0324C54.8809 79.542 52.5786 76.7872 50.3301 73.8239C52.5129 73.9096 54.7383 73.9534 57 73.9534C59.3236 73.9534 61.6207 73.901 63.8816 73.8004C61.6616 76.817 59.4202 79.5761 57.1891 82.0324ZM80.4336 56.2859C81.9573 59.7589 83.2418 63.1192 84.2617 66.3143C80.9564 67.0684 77.3876 67.6757 73.6275 68.127C74.811 66.2516 75.9792 64.3166 77.1271 62.3262C78.2884 60.3124 79.391 58.2956 80.4336 56.2859ZM72.9086 59.8932C71.1266 62.983 69.2971 65.9326 67.4398 68.7169C64.0569 68.9588 60.562 69.0834 57 69.0834C53.4524 69.0834 50.0015 68.9732 46.6786 68.7575C44.7464 65.9367 42.8771 62.9784 41.1064 59.9198C39.3404 56.8695 37.7154 53.7935 36.2427 50.7347C37.715 47.6688 39.3362 44.5893 41.092 41.5445L41.0916 41.5451C42.8521 38.4922 44.705 35.5482 46.6193 32.7451C50.0097 32.4888 53.4863 32.3551 56.9998 32.3551C60.5292 32.3551 64.0104 32.4899 67.3998 32.7484C69.2849 35.531 71.1252 38.4654 72.8926 41.5187C74.6801 44.6063 76.3221 47.6653 77.8071 50.6655C76.3266 53.7172 74.6882 56.807 72.9086 59.8932ZM82.9549 5.50982C86.7724 7.71128 88.257 16.5898 85.8585 28.2322C85.7055 28.9751 85.5332 29.7318 85.3461 30.4986C80.6165 29.4073 75.4806 28.5952 70.1035 28.0908C66.971 23.63 63.7249 19.5747 60.4667 16.0638C61.3427 15.2211 62.2174 14.4175 63.0886 13.6592C71.5048 6.33488 79.3709 3.44309 82.9549 5.50982ZM57 40.438C62.6221 40.438 67.1798 44.9955 67.1798 50.6178C67.1798 56.2398 62.6221 60.7976 57 60.7976C51.3779 60.7976 46.8202 56.2398 46.8202 50.6178C46.8202 44.9955 51.3779 40.438 57 40.438Z" fill="#257BC2"/>
</g>
<defs>
<clipPath id="clip0_1401_8478">
<rect width="114" height="101.531" fill="white"/>
</clipPath>
</defs>
</svg>
