<svg width="114" height="109" viewBox="0 0 114 109" fill="none" xmlns="http://www.w3.org/2000/svg">
<g clip-path="url(#clip0_1398_8364)">
<path d="M78.99 75.5841C83.197 75.1489 86.3885 71.522 86.2434 67.1698C86.0984 62.8175 82.4716 59.3357 78.1195 59.3357H77.8294C73.3322 59.4808 69.8506 63.2527 69.9956 67.7501C70.1407 69.9262 71.0111 71.8122 72.3167 73.1178C67.3844 82.8379 59.8407 89.9465 48.5253 95.8946C40.8366 99.9567 32.8578 101.407 24.8789 100.392C18.3508 99.5215 13.2733 96.62 10.0818 91.8325C5.43957 84.7238 5.00436 77.0349 8.92125 69.3459C11.6776 63.833 16.0297 59.7709 18.786 57.7399C18.2057 55.8539 17.3353 52.6623 16.9001 50.3411C-4.13503 65.5739 -1.95899 86.1746 4.42408 95.8946C9.21138 103.148 18.9311 107.646 29.6662 107.646C32.5676 107.646 35.469 107.356 38.3704 106.63C56.9393 103.003 71.0111 91.9776 78.99 75.5841ZM104.522 57.5948C93.4969 44.6831 77.2491 37.5744 58.6802 37.5744H56.3591C55.0534 34.9631 52.2971 33.2222 49.2506 33.2222H48.9605C44.4633 33.3673 40.9817 37.1392 41.1267 41.6365C41.2718 45.9888 44.8986 49.4706 49.2506 49.4706H49.5408C52.7323 49.3255 55.4887 47.2945 56.6492 44.538H59.2605C70.2858 44.538 80.7308 47.7297 90.1603 53.9679C97.4138 58.7554 102.636 64.9936 105.538 72.5375C108.004 78.6307 107.859 84.5788 105.248 89.6564C101.186 97.3454 94.3673 101.553 85.373 101.553C79.5702 101.553 74.0576 99.8117 71.1562 98.506C69.5604 99.9567 66.659 102.278 64.6281 103.729C70.8661 106.63 77.2491 108.226 83.3421 108.226C97.2688 108.226 107.569 100.537 111.486 92.8481C115.693 84.4337 115.402 69.9262 104.522 57.5948ZM30.8268 78.0504C30.9719 82.4026 34.5986 85.8845 38.9507 85.8845H39.2408C43.738 85.7394 47.2197 81.9674 47.0746 77.4701C46.9295 73.1178 43.3028 69.636 38.9507 69.636H38.6606C38.3704 69.636 37.9352 69.636 37.6451 69.7811C31.6972 59.916 29.231 49.1805 30.1014 37.5744C30.6817 28.8699 33.5831 21.326 38.6606 15.0878C42.8676 9.72003 50.9915 7.10868 56.5041 6.9636C71.8815 6.67345 78.4097 25.8234 78.8449 33.5123C80.7308 33.9476 83.9223 34.9631 86.0984 35.6885C84.3575 12.1863 69.8506 0 55.9239 0C42.8676 0 30.8268 9.42988 26.0395 23.3571C19.3663 41.9267 23.7184 59.7709 31.8423 73.8432C31.1169 74.8587 30.6817 76.4546 30.8268 78.0504Z" fill="#764ABC"/>
</g>
<defs>
<clipPath id="clip0_1398_8364">
<rect width="114" height="108.656" fill="white"/>
</clipPath>
</defs>
</svg>
