<svg width="114" height="114" viewBox="0 0 114 114" fill="none" xmlns="http://www.w3.org/2000/svg">
<path d="M42.9488 3.28742C57.3181 -0.397693 73.1986 1.74975 85.8711 9.57068C101.831 19.1149 112.25 37.1693 112.515 55.7539C113.099 74.5242 103.316 93.1353 87.5944 103.342C70.0967 115.113 45.8916 115.564 28.0228 104.376C9.80928 93.5065 -0.821886 71.5814 1.90881 50.5311C4.10928 28.2879 21.2888 8.66928 42.9488 3.28742Z" fill="#010101"/>
<path d="M40.7484 12.3809C67.8963 1.51114 101.195 21.5804 104.005 50.6902C108.38 76.8837 86.64 103.501 60.1019 104.27C34.8628 106.789 10.4721 85.3939 9.75631 60.0488C7.87398 39.5288 21.3949 19.1679 40.7484 12.3809Z" fill="white"/>
<path d="M43.479 54.1898C55.6478 44.2479 67.5516 33.9614 79.9855 24.3112C73.4637 34.3326 66.7562 44.2214 60.2344 54.2428C54.6404 54.2693 49.0464 54.2693 43.479 54.1898Z" fill="#010101"/>
<path d="M53.7653 59.7307C59.3858 59.7307 64.9797 59.7307 70.5737 59.8102C58.3253 69.6991 46.4746 80.0651 34.0142 89.6889C40.536 79.6675 47.2435 69.7521 53.7653 59.7307Z" fill="#010101"/>
</svg>
