<svg width="35" height="26" viewBox="0 0 35 26" fill="none" xmlns="http://www.w3.org/2000/svg">
<path fill-rule="evenodd" clip-rule="evenodd" d="M2.38435 0.5C1.13682 0.5 0.125492 1.51262 0.125492 2.76015V11.4917C0.258634 11.2654 0.418531 11.0619 0.602175 10.8937L4.6432 7.19223V2.76015C4.6432 1.51262 3.63189 0.5 2.38435 0.5ZM4.47896 13.8953L3.04333 15.2103C3.69692 15.011 4.22486 14.5231 4.47896 13.8953Z" fill="#132238"/>
<path d="M15.4204 21.6705C15.5918 21.9918 15.6025 22.313 15.4526 22.6343C15.3455 22.977 15.1634 23.234 14.9064 23.4053C14.7779 23.5124 14.6601 23.6088 14.553 23.6944C14.4459 23.7587 14.3282 23.8122 14.1997 23.8551C13.9641 23.9836 13.6856 24.0264 13.3644 23.9836C13.2359 23.9836 13.1181 23.9622 13.011 23.9193C12.9039 23.8765 12.7968 23.8229 12.6897 23.7587C12.5826 23.6944 12.4649 23.6302 12.3364 23.5659C12.2293 23.4803 12.1222 23.3946 12.0151 23.3089C11.8866 23.2018 11.7688 23.1055 11.6617 23.0198C11.5546 22.9341 11.4582 22.8378 11.3726 22.7307C11.2655 22.6236 11.1691 22.5165 11.0834 22.4094C10.9978 22.3023 10.9121 22.2059 10.8264 22.1203L10.4409 21.7026L4.27275 15.2453L4.36913 21.7026V21.9918C4.36913 22.0774 4.35841 22.1738 4.337 22.2809C4.31559 22.3666 4.29416 22.4629 4.27275 22.57C4.2085 22.8484 4.13353 23.0948 4.04787 23.3089C4.00502 23.4374 3.94077 23.5445 3.85511 23.6302C3.79086 23.7159 3.71589 23.8015 3.63023 23.8872C3.39463 24.1014 3.11621 24.2192 2.79496 24.2406C2.4737 24.3477 2.17385 24.3798 1.89543 24.337C1.63842 24.3155 1.37071 24.2406 1.09228 24.1121C0.878107 23.9836 0.685351 23.7694 0.514015 23.4696C0.471179 23.3839 0.439053 23.3303 0.417637 23.3089C0.417637 23.2875 0.396218 23.2126 0.353385 23.084C0.224881 22.8699 0.16063 22.6557 0.16063 22.4415C0.139213 22.313 0.117795 22.1952 0.0963778 22.0881C0.0963778 21.981 0.085669 21.8633 0.0642518 21.7348C0.0428346 21.6491 0.0321259 21.5634 0.0321259 21.4778C0.0321259 21.3921 0.0321259 21.3064 0.0321259 21.2207C0.0535431 21.1136 0.0642518 21.028 0.0642518 20.9637C0.0642518 20.8781 0.0642518 20.7817 0.0642518 20.6746L0.0321259 18.1367L0 13.4141C0 12.0434 1.82625 11.4037 0.490297 12.753C0.46888 11.982 0.000148087 14.3672 0.000148087 13.7675C0.000148087 13.1678 0.226626 13.4158 0.248042 12.6662L0.490297 12.753C0.533132 12.5175 0.490297 12.5403 0.490297 12.3261C0.490297 12.0905 3.86588 9.54935 3.88731 9.33516C3.88731 8.90683 0.823089 22.0821 0.373534 12.5407C0.373534 12.5407 0.499026 12.2897 0.499026 12.5407C0.668375 12.4137 -0.171676 13.1266 3.19721 9.90539C3.32486 9.78334 0.499026 12.5407 0.499026 12.5407C0.875502 12.2897 0.499026 12.5407 0.373534 12.5407C0.373534 12.5407 4.80265 8.60226 4.98163 8.13894C5.04588 8.20319 4.24612 8.95933 4.28896 9.04502C4.35321 9.13068 3.0816 10.6648 3.03776 10.0374C3.14485 10.2087 2.37515 10.6516 2.60526 10.4724C2.73075 10.6516 4.51771 10.4724 4.51771 10.4724C4.51771 10.4724 2.35427 10.7159 2.60526 10.4724L2.5069 10.5562C3.63633 9.90539 2.28399 10.7937 2.60526 10.4724C2.94793 10.1512 5.91117 7.22453 6.23243 6.86046C6.8107 6.26076 7.37825 5.68249 7.9351 5.12566C8.51337 4.54739 9.09164 3.97981 9.6699 3.42298L9.76628 3.3266C9.9376 3.15526 10.1089 2.99463 10.2803 2.84471C10.4731 2.67337 10.6551 2.51274 10.8264 2.36282C11.1477 1.99872 11.4779 1.61249 12.1054 1.37719C12.3564 1.13045 17.2845 2.57664 17.6914 2.61947C17.8842 2.64089 19.6992 1.47508 15.8145 1.04565C15.9858 1.1099 15.9913 0.643898 16.1413 0.750984C16.2483 0.858071 16.759 2.27715 16.8661 2.36282C16.9732 2.42707 18.9673 3.03747 17.5217 2.36282C17.693 2.51274 17.2248 2.57801 17.2676 2.87785C19.163 3.23123 14.2211 3.6306 14.1354 3.82335C14.0712 3.93045 15.1202 3.80315 15.056 3.91022C14.9917 4.01731 14.5102 4.15116 14.4245 4.25826C14.3174 4.38676 14.2211 4.50455 14.1354 4.61164C14.0497 4.71871 13.9533 4.82581 13.8463 4.9329C13.7606 5.03997 13.6642 5.13635 13.5571 5.22203C13.4715 5.30769 13.3858 5.40407 13.3001 5.51117L12.8825 5.9288L6.87495 12.0649C7.19621 12.3861 7.52818 12.7288 7.87085 13.0929C8.23495 13.4356 8.57762 13.7782 8.89888 14.1209C9.22014 14.4422 9.51997 14.7527 9.79841 15.0526C10.0768 15.331 10.3124 15.5666 10.5052 15.7593C11.0834 16.359 11.6403 16.9587 12.1757 17.5584C12.7111 18.1367 13.2359 18.7256 13.7499 19.3253L13.8463 19.4217C14.0176 19.593 14.1782 19.7751 14.3282 19.9678C14.4781 20.1392 14.6173 20.3105 14.7458 20.4818C15.0671 20.8459 15.2919 21.2422 15.4204 21.6705Z" fill="url(#paint0_radial_1472_2625)"/>
<path d="M34.4822 2.50048C34.6107 3.52852 34.5251 6.77452 34.5464 8.14522C34.568 9.49451 34.5464 10.8652 34.4822 12.2573C34.4395 13.6281 34.3431 14.9345 34.193 16.1767C34.0432 17.3975 33.8612 18.3827 33.6469 19.1323C33.497 19.5821 33.3151 20.0532 33.1007 20.5458C32.908 21.017 32.6939 21.4454 32.4582 21.8309C32.1156 22.4092 31.698 22.9232 31.2053 23.3729C30.7129 23.8013 30.1667 24.1761 29.5669 24.4973C28.9886 24.7972 28.3677 25.0328 27.7036 25.2041C27.0611 25.3754 26.4186 25.4718 25.776 25.4932C24.641 25.5361 23.5594 25.3754 22.5314 25.0114C21.5248 24.6258 20.5931 24.0261 19.7364 23.2123C19.0939 22.5912 18.5799 21.9273 18.1944 21.2205C17.8089 20.5137 17.509 19.7748 17.2948 19.0038C17.0807 18.2113 16.9415 17.3975 16.8772 16.5622C16.8344 15.7269 16.813 14.8703 16.813 13.9921C16.813 13.5852 16.8023 13.0819 16.7808 12.4822C16.7808 11.8611 16.7808 11.2293 16.7808 10.5868C16.7808 9.92286 16.7808 9.28034 16.7808 8.65923C16.7808 8.03812 16.7915 7.51342 16.813 7.08506C16.813 6.80664 16.813 6.50679 16.813 6.18554C16.813 5.84287 16.7539 5.61553 16.7753 5.29427C16.8181 4.9516 14.0497 4.1232 14.1354 3.82335C14.2211 3.50209 15.4509 3.46462 15.6222 3.20761C15.815 2.92919 11.7627 1.50569 12.1054 1.37719C12.4819 0.798904 15.7772 0.750984 16.1413 0.750984C16.5268 0.750984 17.7894 0.895724 18.1321 1.04565C18.4747 1.19557 21 3.14429 21.2142 3.42271C21.3213 3.59405 21.3963 3.7654 21.4391 3.93672C21.4819 4.10807 21.5141 4.30082 21.5355 4.51499C21.5783 5.22176 21.5997 6.02491 21.5997 6.92443C21.6211 7.82396 21.6211 8.70207 21.5997 9.55876C21.5997 10.394 21.589 11.1651 21.5676 11.8718C21.5462 12.5786 21.5355 13.1033 21.5355 13.446C21.5355 14.731 21.5997 15.8983 21.7282 16.9477C21.8567 17.9757 22.1566 18.8325 22.6277 19.5178C23.0561 20.1389 23.5594 20.5351 24.1377 20.7065C24.7159 20.8778 25.2941 20.9314 25.8724 20.8671C26.408 20.8029 26.9434 20.6101 27.4787 20.2888C28.0356 19.9461 28.4746 19.4536 28.7959 18.811C28.9244 18.5754 29.0315 18.3077 29.1171 18.0079C29.203 17.708 29.2672 17.4296 29.3099 17.1726C29.3957 16.3588 29.4705 15.4164 29.5348 14.3455C29.599 13.2532 29.6527 12.1395 29.6954 11.0044C29.7383 9.86932 29.7596 8.75561 29.7596 7.66333C29.7596 6.57105 29.9097 3.53921 29.8882 2.66111C29.9311 2.2756 30.0488 1.92221 30.2415 1.60095C30.413 1.32253 30.6592 1.07623 30.9804 0.862054C31.3017 0.647882 31.7409 0.540794 32.2976 0.540794C32.7474 0.562211 33.1115 0.680008 33.3899 0.894183C33.6685 1.08694 33.8934 1.30111 34.0645 1.5367C34.2573 1.81512 34.3966 2.13639 34.4822 2.50048Z" fill="url(#paint1_radial_1472_2625)"/>
<defs>
<radialGradient id="paint0_radial_1472_2625" cx="0" cy="0" r="1" gradientUnits="userSpaceOnUse" gradientTransform="translate(22.8368 10.1228) rotate(58.8215) scale(18.8823 5.56415)">
<stop stop-color="#B68BEE"/>
<stop offset="1" stop-color="#9249F2"/>
</radialGradient>
<radialGradient id="paint1_radial_1472_2625" cx="0" cy="0" r="1" gradientUnits="userSpaceOnUse" gradientTransform="translate(12.0824 9.82668) rotate(71.2812) scale(16.1158 3.25885)">
<stop stop-color="#B68BEE"/>
<stop offset="1" stop-color="#9249F2"/>
</radialGradient>
</defs>
</svg>
